# xmcd
#
# Track frame offsets:
#	150
#	15852
#	31896
#	46228
#	62168
#	79169
#	98447
#	120507
#	149244
#	174869
#
# Disc length: 2600 seconds
#
# Revision: 1
# Processed by: cddbd v1.5.2PL0 Copyright (c) Steve Scherf et al.
# Submitted via: audiograbber 1.83.01
#
DISCID=730a260a
DTITLE=Black Engine - Ku Klux Clowns
DYEAR=2007
DGENRE=jazz metal
TTITLE0=I Hate Clowns
TTITLE1=Ku Klux Clowns
TTITLE2=Bones Circus
TTITLE3=Fishtank Midnight Surfer
TTITLE4=A Wolf Day
TTITLE5=Cut It, Pack It, Ship It
TTITLE6=Mene Tekel Peres
TTITLE7=Controversy Over The East Bank
TTITLE8=The Humilitation Of An Impotent God
TTITLE9=Ignite, Isolate
EXTD=
EXTT0=
EXTT1=
EXTT2=
EXTT3=
EXTT4=
EXTT5=
EXTT6=
EXTT7=
EXTT8=
EXTT9=
PLAYORDER=
